# xmcd CD database file
#
# Track frame offsets:
#	150
#	12262
#	39019
#	61814
#	82208
#	101303
#	121654
#	141671
#	165559
#	186613
#
# Disc length: 2751 seconds
#
# Revision: 11
# Processed by: cddbd v1.4PL0 Copyright (c) Steve Scherf et al.
# Submitted via: CDex 1.40Beta9
#
DISCID=7f0abd0a
DTITLE=Hajime Chitose - Hajime Chitose
DYEAR=1900
DGENRE=Pop
TTITLE0=Sango Jugoya
TTITLE1=Wadatsumi No Ki
TTITLE2=Natsu No Utage
TTITLE3=Hikaru Kaigara
TTITLE4=Shinshin Raika
TTITLE5=37.6
TTITLE6=Hatsu Koi
TTITLE7=Hainumi Kaze
TTITLE8=Kimo O Omou
TTITLE9=Rin To Suru
EXTD=ID3G: 13
EXTT0=
EXTT1=
EXTT2=
EXTT3=
EXTT4=
EXTT5=
EXTT6=
EXTT7=
EXTT8=
EXTT9=
PLAYORDER=
